# xmcd
#
# Track frame offsets: 
#        150
#        12813
#        26742
#        39910
#        52009
#        60863
#        76788
#        87745
#        105754
#        118466
#        127134
#        134242
#        153766
#        174103
#        186068
#        199822
#
# Disc length: 2835 seconds
#
# Revision: 7
# Processed by: cddbd v1.5.2PL0 Copyright (c) Steve Scherf et al.
# Submitted via: ExactAudioCopy v0.99pb5
#
DISCID=ce0b1110
DTITLE=Small Faces, The - All Or Nothing [CD1)
DYEAR=2004
DGENRE=Pop
TTITLE0=Itchycoo Park
TTITLE1=All Or Nothing
TTITLE2=Sha La La La Lee
TTITLE3=The Universal
TTITLE4=Whatcha Gonna Do About It
TTITLE5=Afterglow (Of Your Love)
TTITLE6=I'm Only Dreaming
TTITLE7=The Autumn Stone
TTITLE8=Mad John
TTITLE9=Yesterday, Today En Tomorrow
TTITLE10=Feeling Lonely
TTITLE11=Happydaystoytown
TTITLE12=Rene
TTITLE13=Things Are Going To Get Better
TTITLE14=Picanniny
TTITLE15=Donkey Rides, A Penny, A Glass
EXTD=GB 250
EXTT0=
EXTT1=
EXTT2=
EXTT3=
EXTT4=
EXTT5=
EXTT6=
EXTT7=
EXTT8=
EXTT9=
EXTT10=
EXTT11=
EXTT12=
EXTT13=
EXTT14=
EXTT15=
PLAYORDER=
